<svg width="42" height="72" viewBox="0 0 42 72" fill="none" xmlns="http://www.w3.org/2000/svg">
<path d="M38.32 22.08C39.024 22.08 39.632 22.336 40.144 22.848C40.656 23.36 40.912 23.968 40.912 24.672V34.368C40.912 35.072 40.656 35.68 40.144 36.192C39.632 36.704 39.024 36.96 38.32 36.96H26.512V69.408C26.512 70.112 26.256 70.72 25.744 71.232C25.232 71.744 24.624 72 23.92 72H11.824C11.12 72 10.512 71.744 10 71.232C9.488 70.72 9.232 70.112 9.232 69.408V36.96H2.608C1.904 36.96 1.296 36.704 0.784 36.192C0.272 35.68 0.0160002 35.072 0.0160002 34.368V24.672C0.0160002 23.968 0.272 23.36 0.784 22.848C1.296 22.336 1.904 22.08 2.608 22.08H9.232V19.488C9.232 13.728 11.184 9.216 15.088 5.952C18.992 2.624 24.016 0.959999 30.16 0.959999H39.28C39.984 0.959999 40.592 1.216 41.104 1.72799C41.616 2.24 41.872 2.848 41.872 3.55199V13.248C41.872 13.952 41.616 14.56 41.104 15.072C40.592 15.584 39.984 15.84 39.28 15.84H30.64C27.888 15.84 26.512 17.216 26.512 19.968V22.08H38.32Z" fill="#FA4900"/>
</svg>
